<?xml version="1.0" encoding="utf-8"?>
<!-- Generator: Adobe Illustrator 25.4.1, SVG Export Plug-In . SVG Version: 6.00 Build 0)  -->
<svg version="1.1" id="Layer_1" xmlns="http://www.w3.org/2000/svg" xmlns:xlink="http://www.w3.org/1999/xlink" x="0px" y="0px"
	 viewBox="0 0 512 512" style="enable-background:new 0 0 512 512;" xml:space="preserve">
<style type="text/css">
	.st0{fill:#424242;}
</style>
<g id="Solid">
	<path class="st0" d="M239,385c9.4,9.4,24.6,9.4,33.9,0c0,0,0,0,0,0l90.5-90.5c9.4-9.4,9.4-24.6,0-33.9c-9.4-9.4-24.6-9.4-33.9,0
		L280,310.1V48c0-13.3-10.7-24-24-24c-13.3,0-24,10.7-24,24v262.1l-49.5-49.5c-9.4-9.4-24.6-9.4-33.9,0c-9.4,9.4-9.4,24.6,0,33.9
		L239,385z"/>
	<path class="st0" d="M464,232c-13.3,0-24,10.7-24,24v184H72V256c0-13.3-10.7-24-24-24s-24,10.7-24,24v192c0,22.1,17.9,40,40,40h384
		c22.1,0,40-17.9,40-40V256C488,242.7,477.3,232,464,232z"/>
</g>
</svg>
