<?xml version="1.0" encoding="utf-8"?>
<!-- Generator: Adobe Illustrator 25.4.1, SVG Export Plug-In . SVG Version: 6.00 Build 0)  -->
<svg version="1.1" id="Layer_1" xmlns="http://www.w3.org/2000/svg" xmlns:xlink="http://www.w3.org/1999/xlink" x="0px" y="0px"
	 viewBox="0 0 512 512" style="enable-background:new 0 0 512 512;" xml:space="preserve">
<style type="text/css">
	.st0{fill:#AAAAAA;}
</style>
<g>
	<path class="st0" d="M386.3,175.2c-9.3-5.3-21.3-5.3-32,0l-74.6,44l-50.6,28l-73.3,44c-9.3,5.3-21.3,5.3-32,0l-57.3-34.6
		c-9.3-5.3-16-16-16-28v-66.6c0-10.7,5.3-21.3,16-28l57.3-33.3c9.3-5.3,21.3-5.3,32,0l57.3,34.6c9.3,5.3,16,16,16,28v44l50.6-29.3
		v-45.3c0-10.7-5.3-21.3-16-28L157.2,42c-9.3-5.3-21.3-5.3-32,0L16,105.9c-10.7,5.3-16,16-16,26.6v125.2c0,10.7,5.3,21.3,16,28
		l107.9,62.6c9.3,5.3,21.3,5.3,32,0l73.3-42.6l50.6-29.3l73.3-42.6c9.3-5.3,21.3-5.3,32,0l57.3,33.3c9.3,5.3,16,16,16,28v66.6
		c0,10.7-5.3,21.3-16,28L386.3,423c-9.3,5.3-21.3,5.3-32,0L297,389.7c-9.3-5.3-16-16-16-28v-42.6l-50.6,29.3v44
		c0,10.7,5.3,21.3,16,28l107.9,62.6c9.3,5.3,21.3,5.3,32,0l107.9-62.6c9.3-5.3,16-16,16-28V265.8c0-10.7-5.3-21.3-16-28L386.3,175.2
		z"/>
</g>
</svg>
