<?xml version="1.0" encoding="utf-8"?>
<!-- Generator: Adobe Illustrator 25.4.1, SVG Export Plug-In . SVG Version: 6.00 Build 0)  -->
<svg version="1.1" id="Layer_1" xmlns="http://www.w3.org/2000/svg" xmlns:xlink="http://www.w3.org/1999/xlink" x="0px" y="0px"
	 viewBox="0 0 35.2 17.53" style="enable-background:new 0 0 35.2 17.53;" xml:space="preserve">
<style type="text/css">
	.st0{fill:#FFFFFF;}
	.st1{fill:#AEAEAE;}
</style>
<g>
	<g>
		<path class="st0" d="M6.53,9.29l-1.79,5.94L2.95,9.29H0.93l2.63,8.08h2.35l2.63-8.08H6.53z M10.83,9.29l-2.75,8.08h2.02l0.4-1.27
			h3l0.4,1.27h2.02l-2.75-8.08H10.83z M11.06,14.37l0.95-2.97l0.95,2.97H11.06z M20.72,14.6c0,0.61-0.29,1.13-1.27,1.13
			s-1.27-0.52-1.27-1.13V9.29h-1.85v5.47c0,1.73,1.34,2.77,3.12,2.77s3.12-1.04,3.12-2.77V9.29h-1.85V14.6z M25.74,9.29h-1.85v8.08
			h4.73v-1.78h-2.89V9.29z M28.05,9.29v1.78h2.08v6.3h1.85v-6.3h2.08V9.29H28.05z"/>
	</g>
</g>
<path class="st1" d="M7.66,3.43H3.94v1.48h1.98c-0.26,0.71-0.91,1.14-1.9,1.14c-1.44,0-2.33-0.92-2.33-2.18
	c0-1.3,0.93-2.22,2.18-2.22c0.84,0,1.5,0.38,1.81,0.87l1.44-0.83C6.5,0.7,5.31,0,3.89,0C1.71,0,0,1.72,0,3.87C0,6,1.67,7.71,4,7.71
	c2.08,0,3.65-1.38,3.65-3.64V3.43z"/>
<path class="st1" d="M13.06,7.56h1.85l-2.52-7.42h-2.16L7.71,7.56h1.85L9.94,6.4h2.75L13.06,7.56z M10.45,4.81l0.87-2.72l0.87,2.72
	H10.45z"/>
<path class="st1" d="M22.97,0.15h-1.69l-2.01,3.29l-2.01-3.29h-1.7v7.42h1.7V3.25l1.92,3.15h0.19l1.92-3.15v4.31h1.69V0.15z"/>
<path class="st1" d="M25.93,5.93V4.62h2.65V3.01h-2.65V1.78h2.91V0.15h-4.61v7.42h4.66V5.93H25.93z"/>
<path class="st1" d="M32.45,7.71c1.61,0,2.75-0.85,2.75-2.28c0-1.57-1.26-1.96-2.38-2.3c-1.15-0.35-1.33-0.58-1.33-0.92
	c0-0.3,0.26-0.56,0.79-0.56c0.68,0,1.03,0.33,1.28,0.86l1.43-0.84C34.45,0.58,33.5,0,32.28,0C31,0,29.79,0.83,29.79,2.26
	c0,1.42,1.08,1.95,2.18,2.26c1.11,0.31,1.54,0.49,1.54,0.94c0,0.29-0.2,0.6-1.01,0.6c-0.84,0-1.29-0.41-1.56-1.03l-1.46,0.85
	C29.89,6.97,30.89,7.71,32.45,7.71z"/>
</svg>
