<?xml version="1.0" encoding="utf-8"?>
<!-- Generator: Adobe Illustrator 25.4.1, SVG Export Plug-In . SVG Version: 6.00 Build 0)  -->
<svg version="1.1" id="Layer_1" xmlns="http://www.w3.org/2000/svg" xmlns:xlink="http://www.w3.org/1999/xlink" x="0px" y="0px"
	 viewBox="0 0 512 512" style="enable-background:new 0 0 512 512;" xml:space="preserve">
<style type="text/css">
	.st0{fill:#FFFFFF;}
</style>
<path class="st0" d="M256,0C114.8,0,0,114.8,0,256s114.8,256,256,256s256-114.8,256-256S397.2,0,256,0z M368,277.3h-90.7V368
	c0,11.8-9.6,21.3-21.3,21.3s-21.3-9.6-21.3-21.3v-90.7H144c-11.8,0-21.3-9.6-21.3-21.3c0-11.8,9.6-21.3,21.3-21.3h90.7V144
	c0-11.8,9.6-21.3,21.3-21.3s21.3,9.6,21.3,21.3v90.7H368c11.8,0,21.3,9.6,21.3,21.3C389.3,267.8,379.8,277.3,368,277.3z"/>
</svg>
