<?xml version="1.0" encoding="utf-8"?>
<!-- Generator: Adobe Illustrator 25.4.1, SVG Export Plug-In . SVG Version: 6.00 Build 0)  -->
<svg version="1.1" id="Capa_1" xmlns="http://www.w3.org/2000/svg" xmlns:xlink="http://www.w3.org/1999/xlink" x="0px" y="0px"
	 viewBox="0 0 124.5 124.5" style="enable-background:new 0 0 124.5 124.5;" xml:space="preserve">
<style type="text/css">
	.st0{fill:#2A2A2A;}
</style>
<g>
	<path class="st0" d="M51,102c10.5,0,20.2-3.2,28.3-8.6l29.3,29.3c2.3,2.3,6.1,2.3,8.5,0l5.7-5.7c2.3-2.3,2.3-6.1,0-8.5L93.4,79.3
		c5.4-8.1,8.6-17.8,8.6-28.3c0-28.1-22.9-51-51-51S0,22.9,0,51C0,79.1,22.8,102,51,102z M51,20c17.1,0,31,13.9,31,31S68.1,82,51,82
		S20,68.1,20,51S33.9,20,51,20z"/>
</g>
</svg>
